<svg width="116" height="32" viewBox="0 0 116 32" fill="none" xmlns="http://www.w3.org/2000/svg">
<g clip-path="url(#clip0_1_847)">
<path fill-rule="evenodd" clip-rule="evenodd" d="M11.0131 19.4188C11.0921 19.3094 13.5779 17.869 13.7663 17.7535L20.7012 13.6327C20.9078 13.5112 21.9775 12.8548 22.1051 12.8244V12.6664L21.2117 11.1044C21.1327 10.9706 21.078 10.8612 20.9929 10.7154L18.3612 5.99288C18.2883 5.86525 18.2275 5.74369 18.1424 5.6039C17.7048 4.86848 17.249 3.96289 16.8174 3.23354L15.2797 0.468125C15.1946 0.316179 15.1096 0.218934 15.067 0.0365982C14.9151 0.0791431 14.9698 0.085221 14.7996 0.37088L13.1464 3.22139C11.943 5.22708 10.5512 7.66429 9.39638 9.68214C9.31737 9.81585 9.23228 9.94348 9.15934 10.0833C8.74605 10.8491 8.16866 11.7547 7.73713 12.5205L7.28129 13.3106C6.71605 14.3438 5.95024 15.5412 5.39108 16.5683C4.89878 17.4739 4.2606 18.4889 3.74399 19.4188L3.05111 20.6101C2.50411 21.6251 1.71399 22.8467 1.1609 23.8678L0.21276 25.4906C0.145904 25.6122 0.0243467 25.8006 -0.00604248 25.9161C0.230993 25.7945 0.443718 25.6426 0.674676 25.5149C0.905634 25.3934 1.13051 25.2475 1.35539 25.1077L9.60303 20.209C9.81575 20.0813 10.8611 19.4371 11.007 19.4006L11.0131 19.4188Z" fill="#0B2B55"/>
<path fill-rule="evenodd" clip-rule="evenodd" d="M22.1113 12.6603V12.8183C22.1113 14.9577 22.1903 17.0546 22.1903 19.2122C22.1903 19.7896 22.2328 20.2211 22.2328 20.7803C22.2328 21.3273 22.2328 21.8804 22.2328 22.4274C22.2328 22.9562 22.2754 23.4242 22.2754 23.9955C22.2754 24.5425 22.2754 25.0956 22.2754 25.6426C22.3179 25.7702 22.3118 25.7459 22.4759 25.7641C26.0619 25.7641 29.6964 25.8857 33.2884 25.8857C33.9023 25.8857 34.4189 25.9282 35.0571 25.9282C35.6709 25.9282 36.2909 25.9282 36.9047 25.9282C36.2179 24.6336 35.288 23.181 34.5891 21.8925L24.3115 4.0723C24.1534 3.78664 23.9893 3.53137 23.8435 3.25787L21.9532 0.000144958V2.3705C21.9532 2.68655 21.9958 2.86281 21.9958 3.13023C21.9958 3.66508 21.9958 4.20601 21.9958 4.74086C21.9958 5.31218 22.0383 5.7741 22.0383 6.30895C22.0383 6.8438 22.0383 7.37865 22.0383 7.91957C22.0383 8.47874 22.0809 8.91026 22.0809 9.48766C22.0809 10.5938 22.1234 11.5906 22.1234 12.6664L22.1113 12.6603Z" fill="#51C4D9"/>
<path fill-rule="evenodd" clip-rule="evenodd" d="M22.4701 25.7702C22.3059 25.752 22.312 25.7824 22.2695 25.6486C22.1115 25.6122 22.0568 25.5514 21.923 25.4724C21.0539 24.9862 19.5223 24.1839 18.7686 23.722C18.5316 23.5822 18.3128 23.4789 18.0697 23.333L15.2496 21.771C15.0065 21.6433 14.7937 21.5036 14.5506 21.382C14.3075 21.2604 14.0705 21.1085 13.8274 20.9809C12.9825 20.5433 11.8885 19.8747 11.0133 19.4128C10.8492 19.6559 10.7094 19.9233 10.5453 20.1968L4.51002 30.4015C4.23652 30.8938 3.84754 31.4712 3.57404 32C13.5903 32 23.4851 31.9574 33.4831 31.9574C33.4345 31.8298 33.4892 31.9149 33.3676 31.8359C32.8814 31.532 31.988 31.0944 31.4531 30.7783L27.9948 28.8517C27.7517 28.7301 27.5633 28.6025 27.3262 28.4748C27.071 28.3411 26.8765 28.2257 26.6273 28.0859L22.4761 25.7641L22.4701 25.7702Z" fill="#F16522"/>
<path fill-rule="evenodd" clip-rule="evenodd" d="M15.5167 19.3763C15.5167 21.1328 17.1699 22.4213 18.7744 22.0323C19.206 21.929 19.5828 21.771 19.911 21.4793C20.1116 21.303 20.2149 21.2301 20.3972 20.9626C20.5006 20.8107 20.5674 20.7013 20.6464 20.5311C21.5399 18.6105 19.9292 16.7264 18.3672 16.7264C17.4738 16.7264 16.9146 16.9148 16.2886 17.5408C15.8875 17.9419 15.5167 18.5984 15.5167 19.3824V19.3763Z" fill="#F16522"/>
<path fill-rule="evenodd" clip-rule="evenodd" d="M101.786 16.1923C100.91 16.1923 100.327 15.9917 99.8285 15.2988C99.008 14.1501 99.0141 10.8316 100.527 10.0719C101.573 9.54313 102.794 9.72547 103.481 10.7222C104.606 12.3511 104.217 16.1984 101.786 16.1984V16.1923ZM99.2936 9.43981V8.27286H96.8443V21.1761H99.2936V16.9946C99.6887 17.2559 99.8042 17.4686 100.485 17.6935C101.646 18.0764 103.007 18.0582 104.077 17.5173C104.587 17.2559 105.086 16.9277 105.45 16.4779C105.809 16.0282 106.107 15.5359 106.307 14.9281C106.642 13.9253 106.709 12.8556 106.563 11.8162C106.435 10.9471 106.125 10.157 105.602 9.47627C105.049 8.74693 103.907 8.02975 102.624 8.02975C101.822 8.02975 101.099 8.09053 100.424 8.40657C99.9744 8.61322 99.6583 8.98397 99.3605 9.35472C99.3362 9.39118 99.3119 9.41549 99.2876 9.43981H99.2936Z" fill="black"/>
<path fill-rule="evenodd" clip-rule="evenodd" d="M47.9181 11.2024H45.5842V7.42199C46.5992 7.42199 48.4651 7.29436 49.1702 7.73196C50.2034 8.37622 50.0332 10.2421 49.3282 10.8013C48.9817 11.0748 48.5259 11.1963 47.912 11.1963L47.9181 11.2024ZM43.0558 17.9184H45.5903V13.2142C46.8667 13.2142 48.8845 13.3236 49.9967 12.9589C51.3643 12.5152 52.2577 11.5306 52.5069 10.078C52.5798 9.63433 52.592 9.05693 52.5191 8.61933C52.4887 8.44915 52.4643 8.30936 52.434 8.18172C52.3671 7.89607 52.2516 7.6408 52.1301 7.39768C51.887 6.91753 51.5405 6.54071 51.1272 6.23074C50.2703 5.59256 49.079 5.41631 47.6021 5.41631H43.0619V17.9184H43.0558Z" fill="black"/>
<path fill-rule="evenodd" clip-rule="evenodd" d="M92.6207 12.0107H88.5607C88.5607 11.3239 89.0165 10.3636 89.7155 9.98681C90.3719 9.6343 91.4781 9.67076 92.0676 10.394C92.3472 10.7344 92.6268 11.3969 92.6268 12.0107H92.6207ZM85.9898 12.813C85.9898 13.9739 86.1296 15.074 86.7191 15.9796C88.275 18.3803 91.6726 18.4472 93.5567 17.0432C93.9396 16.7575 94.2131 16.4293 94.4805 16.0343C94.6203 15.8276 94.7115 15.6514 94.8087 15.4022C94.8817 15.2259 95.0275 14.8248 95.0336 14.6181H92.5842C92.4931 15.0193 92.3411 15.4386 92.0312 15.7121C91.2532 16.405 89.6122 16.3929 88.9922 15.3961C88.7187 14.9524 88.4817 14.2109 88.4817 13.6517H95.0336C95.1734 13.6517 95.1491 13.5545 95.1673 13.4269C95.2828 12.6915 95.0762 11.4273 94.8756 10.8742C94.596 10.1084 94.1098 9.36079 93.4838 8.8928C91.6361 7.50705 88.8342 7.82918 87.3026 9.42157C87.2114 9.51882 87.1385 9.61606 87.0473 9.72546C86.4152 10.467 85.9898 11.7919 85.9898 12.8069V12.813Z" fill="black"/>
<path fill-rule="evenodd" clip-rule="evenodd" d="M68.0174 9.07515V8.27287H65.6045C65.5133 8.27287 65.4829 8.30326 65.4829 8.39443V17.9245H68.0174C68.0174 16.5266 67.908 12.8069 68.2423 11.64C68.3456 11.2753 68.455 11.0018 68.6373 10.704C69.2634 9.65862 70.6248 9.62215 71.342 10.1327C71.889 10.5217 72.0349 11.1781 72.0349 12.0898V17.9184H74.5693V11.8102C74.5693 10.5521 74.387 9.78018 73.8096 9.06907C72.7156 7.71371 70.0231 7.7988 68.6009 8.65578C68.218 8.88673 68.2909 8.88673 68.0174 9.07515Z" fill="black"/>
<path fill-rule="evenodd" clip-rule="evenodd" d="M107.815 10.8438C107.815 11.6279 107.992 12.1627 108.526 12.7036C108.897 13.0805 109.444 13.3661 110.009 13.5545C110.319 13.6579 110.593 13.743 110.909 13.822C111.213 13.8949 111.523 13.98 111.802 14.0894C112.532 14.375 112.994 14.6242 112.994 15.39C112.994 16.6056 110.405 16.7393 109.979 15.1105C109.943 14.9707 109.967 14.8309 109.821 14.8309H107.451C107.451 15.6696 108.052 16.6786 108.751 17.183C110.733 18.6113 115.486 18.1676 115.486 15.232C115.486 14.0955 115.17 13.4998 114.379 12.9224C112.89 11.8406 110.301 12.1202 110.301 10.6493C110.301 10.0719 110.745 9.68295 111.225 9.68295C111.723 9.68295 112.058 9.70119 112.422 10.0962C112.659 10.3515 112.745 10.6676 112.836 11.0505H115.285C115.285 10.2968 114.866 9.62217 114.422 9.09948C114.337 8.99616 114.288 8.99008 114.185 8.89283C112.568 7.35514 107.803 7.79274 107.803 10.8499L107.815 10.8438Z" fill="black"/>
<path fill-rule="evenodd" clip-rule="evenodd" d="M80.562 17.9609C81.9052 17.9609 82.8716 17.5963 83.6557 16.9946C84.0021 16.7332 84.3303 16.3199 84.5613 15.9309C84.7375 15.6392 85.0596 14.8552 85.0596 14.4175H82.6103C82.5799 14.7701 82.2821 15.3778 82.0572 15.6331C81.3461 16.4354 79.7172 16.4658 79.0426 15.1287C78.4287 13.907 78.0519 9.45803 81.1151 9.79839C82.039 9.90171 82.6346 10.9289 82.6467 11.6825H85.0961C85.0961 11.2145 84.8469 10.4973 84.6828 10.1691C83.3882 7.58605 79.4133 7.3004 77.3286 9.46411C76.4656 10.3576 76.1252 11.6764 76.0523 12.9346L76.1313 14.0225C76.186 14.3872 76.2407 14.685 76.3501 15.0132C76.4534 15.3353 76.5567 15.5663 76.6965 15.8337C76.9457 16.3199 77.359 16.7879 77.7905 17.11C78.5503 17.6753 79.5045 17.967 80.556 17.967L80.562 17.9609Z" fill="black"/>
<path fill-rule="evenodd" clip-rule="evenodd" d="M56.3602 9.31825V8.27286H53.8257V17.9184H56.3602V13.3357C56.3602 12.4301 56.5243 11.6582 56.9011 11.0991C57.5332 10.1448 58.4449 10.157 59.4599 10.157V7.86565C58.4388 7.86565 57.3266 8.32756 56.658 9.0022C56.5729 9.08729 56.4331 9.26355 56.3663 9.31217L56.3602 9.31825Z" fill="black"/>
<path fill-rule="evenodd" clip-rule="evenodd" d="M60.7059 17.9184H63.2343V8.27287H60.7059V17.9184Z" fill="black"/>
<path fill-rule="evenodd" clip-rule="evenodd" d="M82.6528 27.649H83.2545V24.4339L84.5733 26.1721C84.6524 26.2876 84.6706 26.3301 84.78 26.4031C85.0049 26.0627 85.2662 25.7467 85.5154 25.4124C85.6552 25.2301 86.1354 24.525 86.2691 24.4339V27.649H86.8708V23.3459C86.1779 23.3459 86.4149 23.2608 85.5701 24.3792L84.9684 25.1814C84.8955 25.2787 84.8104 25.3638 84.78 25.4732C84.5065 25.2908 83.3092 23.3398 83.0904 23.3398H82.6467V27.643L82.6528 27.649Z" fill="black"/>
<path fill-rule="evenodd" clip-rule="evenodd" d="M97.7681 27.649H98.3698V24.4339C98.5886 24.5919 99.6765 26.2572 99.8953 26.4031L100.989 24.9201C101.087 24.7924 101.275 24.5068 101.384 24.4339V27.649H101.986V23.3459C101.293 23.3459 101.53 23.2608 100.685 24.3792C100.582 24.5129 99.9318 25.3395 99.8953 25.4732C99.792 25.4063 99.166 24.5311 99.0748 24.4035C98.2118 23.2548 98.4792 23.3398 97.7681 23.3398V27.643V27.649Z" fill="black"/>
<path fill-rule="evenodd" clip-rule="evenodd" d="M113.005 27.0838H112.203V23.9051C113.072 23.9051 113.917 23.8504 114.373 24.7864C114.665 25.382 114.543 26.1661 114.099 26.6097C113.844 26.865 113.498 27.0838 113.005 27.0838ZM111.601 27.649C112.799 27.649 113.71 27.8192 114.507 27.017C114.92 26.6037 115.139 26.1539 115.139 25.5218C115.139 24.2637 114.136 23.352 112.89 23.352H111.601V27.6551V27.649Z" fill="black"/>
<path fill-rule="evenodd" clip-rule="evenodd" d="M56.0015 27.0838H55.1992V23.9051C56.0684 23.9051 56.9132 23.8504 57.369 24.7864C57.8674 25.8075 57.1745 27.0777 56.0015 27.0777V27.0838ZM54.5975 27.649C55.7949 27.649 56.7065 27.8192 57.5027 27.017C57.916 26.6037 58.1348 26.1539 58.1348 25.5218C58.1348 24.2637 57.132 23.352 55.886 23.352H54.5975V27.6551V27.649Z" fill="black"/>
<path fill-rule="evenodd" clip-rule="evenodd" d="M48.7199 25.1936H48.0392V23.9051H48.884C49.2851 23.9051 49.6073 24.1178 49.6073 24.5068C49.6073 25.0295 49.2426 25.1875 48.7199 25.1875V25.1936ZM47.4314 27.6429H48.0331V25.7163C48.6227 25.7163 48.2823 25.6433 48.7868 26.166L49.8018 27.3634C49.8869 27.4728 49.9659 27.5092 50.0023 27.6429H50.7681C50.7195 27.57 50.6405 27.4667 50.5736 27.3938L49.1575 25.7163C49.3702 25.6129 50.2029 25.4914 50.2029 24.5493C50.2029 24.1603 50.0388 23.8747 49.8321 23.6741C49.6194 23.4675 49.3216 23.3459 48.9144 23.3459H47.4253V27.649L47.4314 27.6429Z" fill="black"/>
<path fill-rule="evenodd" clip-rule="evenodd" d="M42.5331 25.4732C42.5331 26.7009 43.5298 27.722 44.6239 27.722H44.9885C45.6328 27.722 46.5627 27.1263 46.6782 26.634C46.4715 26.5793 46.3925 26.4091 46.1555 26.3909C46.1312 26.4882 46.0157 26.634 45.9427 26.7009C45.882 26.7617 45.73 26.8771 45.6449 26.9258C44.5023 27.5883 43.1409 26.7556 43.1409 25.5461C43.1409 24.7134 43.6514 24.0996 44.2713 23.9051C44.6421 23.7896 45.1162 23.8078 45.4444 23.9659C45.809 24.1421 45.9853 24.3123 46.1919 24.6223C46.3621 24.5311 46.508 24.4278 46.6721 24.3427C46.5141 23.741 45.183 22.8962 43.8884 23.4432C43.4995 23.6073 43.2077 23.8625 42.9524 24.1968C42.8674 24.3062 42.8127 24.4217 42.7458 24.5554C42.6486 24.7681 42.5331 25.1814 42.5331 25.4671V25.4732Z" fill="black"/>
<path fill-rule="evenodd" clip-rule="evenodd" d="M79.3163 27.649H81.8507C81.8507 27.254 81.9054 27.0838 81.7292 27.0838H79.918V25.7588H81.3645C81.5347 25.7588 81.4861 25.619 81.4861 25.2787C81.4861 25.1875 81.4557 25.1571 81.3645 25.1571H79.918V23.9111H81.7292C81.8933 23.9111 81.8507 23.7835 81.8507 23.4675C81.8507 23.3763 81.8204 23.3459 81.7292 23.3459H79.3163V27.649Z" fill="black"/>
<path fill-rule="evenodd" clip-rule="evenodd" d="M51.2547 27.649H53.7892C53.7892 27.254 53.8439 27.0838 53.6676 27.0838H51.8564V25.7588H53.303C53.4731 25.7588 53.4245 25.619 53.4245 25.2787C53.4245 25.1875 53.3941 25.1571 53.303 25.1571H51.8564V23.9111H53.6676C53.8317 23.9111 53.7892 23.7835 53.7892 23.4675C53.7892 23.3763 53.7588 23.3459 53.6676 23.3459H51.2547V27.649Z" fill="black"/>
<path fill-rule="evenodd" clip-rule="evenodd" d="M108.222 27.649H110.756C110.756 27.254 110.811 27.0838 110.635 27.0838H108.824V25.7588H110.27C110.44 25.7588 110.392 25.619 110.392 25.2787C110.392 25.1875 110.361 25.1571 110.27 25.1571H108.824V23.9111H110.635C110.799 23.9111 110.756 23.7835 110.756 23.4675C110.756 23.3763 110.726 23.3459 110.635 23.3459H108.222V27.649Z" fill="black"/>
<path fill-rule="evenodd" clip-rule="evenodd" d="M87.7946 24.3123V24.5129C87.7946 25.9837 89.9279 25.382 89.9279 26.6462C89.9279 27.2114 88.7184 27.5032 88.1167 26.6037C88.0013 26.6644 87.7035 26.8711 87.6366 26.9683C88.4875 28.2386 90.5296 27.8071 90.5296 26.6462C90.5296 25.6616 89.9887 25.4428 89.1196 25.1267C88.7488 24.993 88.4146 24.8836 88.3781 24.4643C88.3295 23.9051 89.1014 23.6681 89.6362 23.9719C89.7881 24.057 89.855 24.1968 90.013 24.2394C90.1285 24.1604 90.1528 24.0935 90.4142 23.9172C89.9097 22.963 87.8007 23.1028 87.8007 24.3184L87.7946 24.3123Z" fill="black"/>
<path fill-rule="evenodd" clip-rule="evenodd" d="M72.3994 24.3123V24.5129C72.3994 25.9837 74.5327 25.382 74.5327 26.6462C74.5327 27.2114 73.3233 27.5032 72.7215 26.6037C72.6061 26.6644 72.3083 26.8711 72.2414 26.9683C73.0923 28.2386 75.1344 27.8071 75.1344 26.6462C75.1344 25.6616 74.5935 25.4428 73.7244 25.1267C73.5238 25.0538 73.4205 25.0234 73.2564 24.914C73.0923 24.8107 73.0072 24.7134 72.9829 24.4643C72.9343 23.9051 73.7062 23.6681 74.241 23.9719C74.393 24.057 74.4598 24.1968 74.6178 24.2394C74.7333 24.1604 74.7576 24.0935 75.019 23.9172C74.5145 22.963 72.4055 23.1028 72.4055 24.3184L72.3994 24.3123Z" fill="black"/>
<path fill-rule="evenodd" clip-rule="evenodd" d="M65.1244 24.3123V24.5129C65.1244 25.9837 67.2577 25.382 67.2577 26.6462C67.2577 27.2114 66.0482 27.5032 65.4465 26.6037C65.331 26.6644 65.0332 26.8711 64.9663 26.9683C65.8172 28.2386 67.8594 27.8071 67.8594 26.6462C67.8594 25.6616 67.3185 25.4428 66.4493 25.1267C66.2488 25.0538 66.1454 25.0234 65.9813 24.914C65.8172 24.8107 65.7321 24.7134 65.7078 24.4643C65.6592 23.9051 66.4311 23.6681 66.9659 23.9719C67.1179 24.057 67.1848 24.1968 67.3428 24.2394C67.4583 24.1604 67.4826 24.0935 67.7439 23.9172C67.2395 22.963 65.1304 23.1028 65.1304 24.3184L65.1244 24.3123Z" fill="black"/>
<path fill-rule="evenodd" clip-rule="evenodd" d="M60.663 5.81741C60.663 7.64685 63.2764 7.53137 63.2764 5.85996C63.2764 5.19747 62.693 4.57146 62.0305 4.57146C61.6172 4.57146 61.2951 4.65655 61.0155 4.96044C60.8392 5.14885 60.663 5.4649 60.663 5.81741Z" fill="black"/>
<path fill-rule="evenodd" clip-rule="evenodd" d="M69.7498 25.9168V27.643H70.3515C70.3515 25.3516 70.1388 26.1721 71.1781 24.6101C71.3118 24.4095 71.9622 23.4796 71.9986 23.3398H71.3179C71.1356 23.6802 70.3272 24.7499 70.0719 25.2301C69.9565 25.145 69.5432 24.4764 69.4277 24.3062C69.215 23.9841 69.0022 23.662 68.7834 23.3398H68.1027C68.1453 23.51 68.4066 23.8139 68.516 23.9719C68.6619 24.1907 68.7834 24.3731 68.9354 24.598C69.0752 24.8107 69.7559 25.7406 69.7559 25.9108L69.7498 25.9168Z" fill="black"/>
<path fill-rule="evenodd" clip-rule="evenodd" d="M104.32 23.9051H105.645V27.649H106.247V23.9051H107.578V23.3459H104.32V23.9051Z" fill="black"/>
<path fill-rule="evenodd" clip-rule="evenodd" d="M60.1402 23.9051H61.4651V27.649H62.0668V23.9051H63.3979V23.3459H60.1402V23.9051Z" fill="black"/>
<path fill-rule="evenodd" clip-rule="evenodd" d="M75.4139 23.9051H76.745V27.649H77.3467V23.9051H78.6717V23.3459H75.4139V23.9051Z" fill="black"/>
<path fill-rule="evenodd" clip-rule="evenodd" d="M92.7847 27.6491H95.4407C95.4407 27.254 95.4954 27.0838 95.3192 27.0838H93.3864V23.4675C93.3864 23.2913 93.198 23.346 92.7847 23.346V27.6491Z" fill="black"/>
<path fill-rule="evenodd" clip-rule="evenodd" d="M58.9312 27.649H59.5329V23.4675C59.5329 23.3763 59.5025 23.3459 59.4113 23.3459H58.9312V27.649Z" fill="black"/>
<path fill-rule="evenodd" clip-rule="evenodd" d="M96.079 27.649H96.6807V23.4675C96.6807 23.3763 96.6503 23.3459 96.5591 23.3459H96.079V27.649Z" fill="black"/>
<path fill-rule="evenodd" clip-rule="evenodd" d="M103.117 27.649H103.719V23.4675C103.719 23.3763 103.688 23.3459 103.597 23.3459H103.117V27.649Z" fill="black"/>
</g>
<defs>
<clipPath id="clip0_1_847">
<rect width="115.497" height="32" fill="white"/>
</clipPath>
</defs>
</svg>
